<svg width="43" height="41" viewBox="0 0 43 41" fill="none" xmlns="http://www.w3.org/2000/svg">
<g opacity="0.7">
<path fill-rule="evenodd" clip-rule="evenodd" d="M16.1296 17.8407V18.266C18.4675 18.8009 20.2129 20.9094 20.2129 23.4289C20.2129 24.4035 19.4294 25.1936 18.4629 25.1936C18.3454 25.1936 18.2307 25.1819 18.1197 25.1597C19.3838 26.0342 20.2129 27.5016 20.2129 29.1642C20.2129 31.5944 18.4414 33.6074 16.1296 33.9618V34.3113C16.1296 35.2859 15.3461 36.076 14.3796 36.076C13.4131 36.076 12.6296 35.2859 12.6296 34.3113V33.8859C10.2916 33.351 8.54622 31.2425 8.54622 28.723C8.54622 27.7484 9.32973 26.9583 10.2962 26.9583C10.4137 26.9583 10.5284 26.97 10.6394 26.9922C9.37536 26.1177 8.54622 24.6504 8.54622 22.9877C8.54622 20.5575 10.3177 18.5445 12.6296 18.1901V17.8407C12.6296 16.866 13.4131 16.076 14.3796 16.076C15.3461 16.076 16.1296 16.866 16.1296 17.8407ZM12.0462 22.9877C12.0462 22.5288 12.2778 22.1245 12.6296 21.8871V24.0884C12.2778 23.8509 12.0462 23.4466 12.0462 22.9877ZM16.1296 22.1135V24.3666C16.5088 24.4247 16.8735 24.5275 17.2182 24.6694C16.9058 24.3506 16.7129 23.9125 16.7129 23.4289C16.7129 22.9062 16.4876 22.4367 16.1296 22.1135ZM11.5409 27.4825C11.8856 27.6244 12.2503 27.7272 12.6296 27.7853V30.0384C12.2715 29.7152 12.0462 29.2457 12.0462 28.723C12.0462 28.2394 11.8533 27.8013 11.5409 27.4825ZM16.7129 29.1642C16.7129 28.7053 16.4813 28.301 16.1296 28.0635V30.2648C16.4813 30.0274 16.7129 29.6231 16.7129 29.1642Z" fill="#212121" fill-opacity="0.7"/>
<path fill-rule="evenodd" clip-rule="evenodd" d="M28.7694 28.4286C28.8014 28.4288 28.8335 28.4289 28.8655 28.4289C36.6513 28.4289 42.9629 22.1082 42.9629 14.3113C42.9629 6.51429 36.6513 0.193604 28.8655 0.193604C21.8803 0.193604 16.0817 5.28134 14.9631 11.9583C7.23113 11.9583 0.962891 18.279 0.962891 26.076C0.962891 33.8729 7.2309 40.1936 14.9629 40.1936C21.9 40.1936 27.6587 35.1057 28.7694 28.4286ZM28.915 24.8994C34.7315 24.8727 39.4386 20.1425 39.4386 14.3113C39.4386 8.46353 34.7049 3.72302 28.8655 3.72302C23.6767 3.72302 19.3609 7.46623 18.4637 12.4033C24.1379 13.8764 28.4197 18.8465 28.915 24.8994ZM25.4629 26.076C25.4629 31.9237 20.7619 36.6642 14.9629 36.6642C9.1639 36.6642 4.46289 31.9237 4.46289 26.076C4.46289 20.2282 9.1639 15.4877 14.9629 15.4877C20.7619 15.4877 25.4629 20.2282 25.4629 26.076Z" fill="#212121" fill-opacity="0.7"/>
</g>
</svg>
