<svg width="40" height="40" viewBox="0 0 40 40" fill="none" xmlns="http://www.w3.org/2000/svg">
<path fill-rule="evenodd" clip-rule="evenodd" d="M39.6115 8.62605C41.4406 3.50452 36.4955 -1.44062 31.374 0.388495L4.27751 10.0658C-1.353 12.0767 -1.44873 20.005 4.13157 22.1512L12.5271 25.3803C13.4893 25.7504 14.2496 26.5107 14.6197 27.4729L17.8488 35.8684C19.995 41.4487 27.9233 41.353 29.9342 35.7225L39.6115 8.62605ZM32.3164 3.02727C35.2114 1.99334 38.0067 4.78863 36.9727 7.68363L27.2954 34.7801C26.1588 37.9628 21.6772 38.0169 20.464 34.8626L17.2349 26.467C17.08 26.0642 16.8864 25.6814 16.6586 25.323L25.0305 16.9511C25.5776 16.404 25.5776 15.5169 25.0305 14.9698C24.4834 14.4226 23.5963 14.4226 23.0492 14.9698L14.6773 23.3416C14.3188 23.1137 13.9359 22.92 13.533 22.7651L5.13743 19.536C1.98311 18.3228 2.03723 13.8412 5.21993 12.7046L32.3164 3.02727Z" fill="#212121"/>
</svg>
