<svg width="37" height="40" viewBox="0 0 37 40" fill="none" xmlns="http://www.w3.org/2000/svg">
<path fill-rule="evenodd" clip-rule="evenodd" d="M23.3726 14.5533C21.5482 13.5784 20.5874 11.6882 20.6169 9.82752C20.6391 8.43059 20.5384 6.38072 20.0045 4.78508C19.7418 4.00004 19.4451 3.54573 19.2086 3.3174C19.0468 3.16117 18.8786 3.06005 18.5 3.06005C18.1214 3.06005 17.9532 3.16118 17.7914 3.3174C17.5549 3.54573 17.2582 4.00004 16.9955 4.78508C16.4616 6.38072 16.3609 8.43059 16.3831 9.82752C16.4126 11.6882 15.4518 13.5784 13.6274 14.5533L3.08333 20.1881V23.7779L10.6105 20.33C13.3346 19.0822 16.4444 21.057 16.4444 24.0346V27.8219C16.4444 29.015 16.023 30.1703 15.2534 31.0869L11.6905 35.33L12.0787 36.4858L16.6291 34.2277C17.8586 33.6177 19.3139 33.6578 20.5073 34.3346L24.3943 36.5389L25.1181 35.1021L21.7466 31.0869C20.977 30.1703 20.5556 29.015 20.5556 27.8219V24.0346C20.5556 21.057 23.6654 19.0822 26.3895 20.33L33.9167 23.7779V20.188L23.3726 14.5533ZM8.95527 33.8076L12.8847 29.1279C13.1925 28.7612 13.3611 28.2991 13.3611 27.8219V24.0346C13.3611 23.2902 12.5837 22.7965 11.9026 23.1084L2.91695 27.2243C1.5549 27.8482 0 26.8609 0 25.3721V19.5788C0 18.8283 0.415202 18.1384 1.08102 17.7826L12.1656 11.8591C12.8907 11.4716 13.3131 10.6929 13.3001 9.87576C13.2528 6.89639 13.6654 0 18.5 0C23.3346 0 23.7472 6.89639 23.6999 9.87576C23.6869 10.6929 24.1093 11.4716 24.8344 11.8591L35.919 17.7826C36.5848 18.1384 37 18.8283 37 19.5788V25.3721C37 26.8609 35.4451 27.8482 34.083 27.2243L25.0974 23.1084C24.4163 22.7965 23.6389 23.2902 23.6389 24.0346V27.8219C23.6389 28.2991 23.8075 28.7612 24.1153 29.1279L27.9171 33.6556C28.44 34.2782 28.5418 35.149 28.1766 35.8739L26.6662 38.8718C26.1385 39.9193 24.8324 40.3118 23.8078 39.7307L18.9776 36.9914C18.6792 36.8222 18.3154 36.8122 18.008 36.9647L12.3976 39.7487C11.2788 40.3039 9.92387 39.747 9.52829 38.5692L8.58432 35.7587C8.35921 35.0884 8.49954 34.3503 8.95527 33.8076Z" fill="#363538"/>
</svg>
