<svg width="44" height="40" viewBox="0 0 44 40" fill="none" xmlns="http://www.w3.org/2000/svg">
<path fill-rule="evenodd" clip-rule="evenodd" d="M31.9 10C31.9 15.5229 27.4676 20 22 20C16.5324 20 12.1001 15.5229 12.1001 10C12.1001 4.47715 16.5324 0 22 0C27.4676 0 31.9 4.47715 31.9 10ZM28.6 10C28.6 13.6819 25.6451 16.6667 22 16.6667C18.355 16.6667 15.4001 13.6819 15.4001 10C15.4001 6.3181 18.355 3.33333 22 3.33333C25.6451 3.33333 28.6 6.3181 28.6 10Z" fill="#363538"/>
<path fill-rule="evenodd" clip-rule="evenodd" d="M37.84 31C37.84 35.9706 30.7482 40 22 40C13.2519 40 6.16009 35.9706 6.16009 31C6.16009 26.0294 13.2519 22 22 22C30.7482 22 37.84 26.0294 37.84 31ZM34.54 31C34.54 31.7462 33.9729 33.1007 31.5827 34.4587C29.296 35.758 25.9147 36.6667 22 36.6667C18.0854 36.6667 14.7041 35.758 12.4174 34.4587C10.0272 33.1007 9.46008 31.7462 9.46008 31C9.46008 30.2538 10.0272 28.8993 12.4174 27.5413C14.7041 26.242 18.0854 25.3333 22 25.3333C25.9147 25.3333 29.296 26.242 31.5827 27.5413C33.9729 28.8993 34.54 30.2538 34.54 31Z" fill="#363538"/>
<path d="M36.3 9.99998C36.3 9.02108 35.9867 8.11611 35.4559 7.38177C34.9673 6.70593 34.2945 6.17464 33.5121 5.86329L33.4562 5.84045C33.3566 5.79865 33.2583 5.75161 33.1625 5.69963C33.0614 5.64474 32.9631 5.58435 32.8688 5.51878C32.3131 5.13213 31.9 4.56561 31.9 3.88886C31.9 2.96839 32.6474 2.20365 33.538 2.39855C36.1753 2.97566 38.309 4.91748 39.1785 7.45543C39.4516 8.25272 39.6 9.10885 39.6 9.99998C39.6 10.8911 39.4516 11.7472 39.1785 12.5445C38.309 15.0825 36.1753 17.0243 33.538 17.6014C32.6474 17.7963 31.9 17.0316 31.9 16.1111C31.9 15.4343 32.3131 14.8678 32.8688 14.4812C32.9631 14.4156 33.0614 14.3552 33.1625 14.3003C33.2583 14.2483 33.3566 14.2013 33.4562 14.1595L33.5121 14.1367C34.2945 13.8253 34.9673 13.294 35.4559 12.6182C35.9867 11.8838 36.3 10.9789 36.3 9.99998Z" fill="#363538"/>
<path d="M40.7 30C40.7 30.1937 40.5992 30.6317 40.0941 31.194C39.9079 31.4014 39.6666 31.6256 39.3552 31.8608C39.2982 31.9039 39.2431 31.9494 39.1903 31.9972C39.1362 32.0461 39.0846 32.0974 39.0356 32.1508C38.7083 32.5077 38.5 32.9616 38.5 33.4533C38.5 34.7249 39.792 35.5842 40.8389 34.8778C41.0081 34.7637 41.1715 34.6469 41.3288 34.5276L41.3919 34.4793C41.8663 34.1136 42.2842 33.7247 42.6387 33.3163C43.5118 32.3104 44 31.1862 44 30C44 28.8138 43.5118 27.6896 42.6386 26.6836C42.2842 26.2753 41.8663 25.8864 41.3919 25.5207L41.3288 25.4725C41.1715 25.3531 41.0081 25.2363 40.8389 25.1222C39.792 24.4159 38.5 25.2751 38.5 26.5467C38.5 27.0384 38.7083 27.4923 39.0356 27.8492C39.0846 27.9027 39.1362 27.9539 39.1903 28.0028C39.2431 28.0506 39.2982 28.0961 39.3552 28.1392C39.6666 28.3744 39.9079 28.5986 40.0941 28.806C40.5992 29.3683 40.7 29.8063 40.7 30Z" fill="#363538"/>
<path d="M7.69998 9.99964C7.69998 9.02075 8.01328 8.11577 8.54412 7.38143C9.03267 6.7056 9.70549 6.1743 10.4879 5.86295L10.5438 5.84011C10.6434 5.79831 10.7417 5.75127 10.8375 5.69929C10.9386 5.6444 11.037 5.58401 11.1312 5.51844C11.6869 5.13179 12.1 4.56527 12.1 3.88852C12.1 2.96805 11.3526 2.20331 10.462 2.39821C7.82475 2.97532 5.69096 4.91714 4.82149 7.45509C4.54835 8.25239 4.39999 9.10851 4.39999 9.99964C4.39999 10.8908 4.54835 11.7469 4.82149 12.5442C5.69096 15.0821 7.82475 17.024 10.462 17.6011C11.3526 17.796 12.1 17.0312 12.1 16.1108C12.1 15.434 11.6869 14.8675 11.1312 14.4808C11.0369 14.4153 10.9386 14.3549 10.8375 14.3C10.7417 14.248 10.6434 14.201 10.5438 14.1592L10.4879 14.1363C9.70549 13.825 9.03267 13.2937 8.54412 12.6178C8.01328 11.8835 7.69998 10.9785 7.69998 9.99964Z" fill="#363538"/>
<path d="M3.29999 29.9997C3.29999 30.1934 3.40076 30.6314 3.90589 31.1937C4.09214 31.4011 4.33335 31.6253 4.64477 31.8604C4.70183 31.9035 4.75691 31.9491 4.80973 31.9969C4.86376 32.0458 4.91541 32.097 4.9644 32.1505C5.29168 32.5074 5.49998 32.9613 5.49998 33.453C5.49998 34.7246 4.20798 35.5838 3.16111 34.8775C2.99192 34.7634 2.82854 34.6465 2.67121 34.5272L2.60807 34.4789C2.13367 34.1133 1.71578 33.7244 1.36133 33.316C0.488221 32.3101 0 31.1859 0 29.9997C0 28.8135 0.488234 27.6893 1.36137 26.6833C1.71581 26.2749 2.13369 25.886 2.60807 25.5204L2.67121 25.4721C2.82854 25.3528 2.99192 25.236 3.16111 25.1218C4.20798 24.4155 5.49998 25.2747 5.49998 26.5464C5.49998 27.0381 5.29168 27.4919 4.9644 27.8489C4.91541 27.9023 4.86376 27.9536 4.80973 28.0025C4.75691 28.0503 4.70183 28.0958 4.64477 28.1389C4.33336 28.374 4.09214 28.5983 3.90589 28.8056C3.40076 29.368 3.29999 29.8059 3.29999 29.9997Z" fill="#363538"/>
</svg>
