<svg width="36" height="40" viewBox="0 0 36 40" fill="none" xmlns="http://www.w3.org/2000/svg">
<path fill-rule="evenodd" clip-rule="evenodd" d="M15.9492 20C21.4545 20 25.9174 15.5228 25.9174 10C25.9174 4.47715 21.4545 0 15.9492 0C10.4439 0 5.98094 4.47715 5.98094 10C5.98094 15.5228 10.4439 20 15.9492 20ZM15.9492 17C19.8029 17 22.9269 13.866 22.9269 10C22.9269 6.13401 19.8029 3 15.9492 3C12.0955 3 8.9714 6.13401 8.9714 10C8.9714 13.866 12.0955 17 15.9492 17Z" fill="#363538"/>
<path fill-rule="evenodd" clip-rule="evenodd" d="M15.9492 40C24.7576 40 31.8983 35.9706 31.8983 31C31.8983 26.0294 24.7576 22 15.9492 22C7.14068 22 0 26.0294 0 31C0 35.9706 7.14068 40 15.9492 40ZM25.7608 34.7492C28.2154 33.3641 28.9079 31.9201 28.9079 31C28.9079 30.0799 28.2154 28.6359 25.7608 27.2508C23.3999 25.9185 19.9371 25 15.9492 25C11.9612 25 8.49838 25.9185 6.13751 27.2508C3.68291 28.6359 2.99047 30.0799 2.99047 31C2.99047 31.9201 3.68291 33.3641 6.13751 34.7492C8.49838 36.0815 11.9612 37 15.9492 37C19.9371 37 23.3999 36.0815 25.7608 34.7492Z" fill="#363538"/>
<path fill-rule="evenodd" clip-rule="evenodd" d="M24.1527 19.5106C23.629 17.3297 24.9457 15.0642 27.1838 15.002L27.229 15.001C27.2758 15.0003 27.3232 15 27.3714 15C28.076 15 28.7221 15.2674 29.1998 15.5417C29.4507 15.6859 29.7838 15.7793 30.0729 15.7793C30.3621 15.7793 30.5875 15.6859 30.8384 15.5417C31.316 15.2674 31.9622 15 32.6667 15C32.7149 15 32.7623 15.0003 32.8091 15.001C35.0747 15.0338 36.4126 17.315 35.8855 19.5106C35.3016 21.942 31.8862 24.0973 30.5524 24.8576C30.2193 25.0475 29.8189 25.0475 29.4857 24.8576C28.1519 24.0973 24.7365 21.942 24.1527 19.5106ZM27.7137 18.1451C28.3918 18.5346 29.2341 18.7793 30.0729 18.7793C31.1074 18.7793 31.8662 18.4083 32.3244 18.1451C32.4273 18.086 32.52 18.0445 32.5942 18.0203C32.6413 18.0049 32.6672 18.0009 32.6738 18C32.7053 18 32.736 18.0003 32.766 18.0007C32.7995 18.0012 32.8186 18.0062 32.8186 18.0062L32.8219 18.0073C32.8219 18.0073 32.8303 18.0122 32.8415 18.0231C32.8529 18.0342 32.8701 18.0534 32.8896 18.0835C32.9777 18.219 33.0551 18.4874 32.9781 18.808C32.9182 19.0576 32.548 19.6806 31.5571 20.5304C31.049 20.966 30.5033 21.3555 30.0191 21.6719C29.5348 21.3555 28.9891 20.966 28.4811 20.5304C27.4901 19.6806 27.1199 19.0576 27.06 18.808C26.983 18.4874 27.0604 18.219 27.1485 18.0835C27.1681 18.0534 27.1852 18.0342 27.1967 18.0231C27.2078 18.0122 27.2153 18.0078 27.2153 18.0078L27.2196 18.0062C27.2196 18.0062 27.2386 18.0012 27.2722 18.0007C27.3021 18.0003 27.3329 18 27.3643 18C27.3709 18.0009 27.3968 18.0049 27.444 18.0203C27.5181 18.0445 27.6109 18.086 27.7137 18.1451Z" fill="#363538"/>
</svg>
