<svg width="613" height="2054" viewBox="0 0 613 2054" fill="none" xmlns="http://www.w3.org/2000/svg">
<path d="M332.5 2.06861H528.5C556 1.90729 611 17.6521 611 81.922V299.219V360.198H92C49.5 360.198 2 366.392 2 447.31V743.01H528.5C556 742.365 611 757.432 611 822.863V1090.49H92C53.5 1090.49 2 1090.49 2 1147.12V1442.33H528.5C559.5 1442.33 611 1442.33 611 1502.34V1812.08V2014.02C611 2050.8 611 2050.8 533.5 2050.8H92C47.5 2050.8 2 2064.7 2 2000.5V1839.18" stroke="#F40E00" stroke-width="2.5"/>
</svg>
