<svg width="15" height="25" viewBox="0 0 15 25" fill="none" xmlns="http://www.w3.org/2000/svg">
<path d="M6.62976 16.8735V10.487H7.52321C8.2512 10.487 8.87992 10.3547 9.40937 10.09C9.96088 9.80317 10.38 9.41711 10.6668 8.93178C10.9757 8.42439 11.1301 7.83979 11.1301 7.17798C11.1301 6.51617 10.9867 5.9426 10.6999 5.45727C10.4131 4.97194 10.005 4.59691 9.47555 4.33219C8.9461 4.06747 8.31738 3.9351 7.58939 3.9351C6.64079 3.9351 5.79147 4.19983 5.04142 4.72928C4.31342 5.23667 3.72882 5.99775 3.28761 7.01253L0.640367 4.82855C1.30218 3.39462 2.25078 2.30263 3.48616 1.55258C4.7436 0.780467 6.17753 0.39441 7.78793 0.39441C9.17774 0.39441 10.4021 0.670165 11.461 1.22167C12.5419 1.77318 13.3802 2.5453 13.9759 3.53801C14.5715 4.50867 14.8693 5.63375 14.8693 6.91325C14.8693 8.10452 14.6046 9.16341 14.0751 10.09C13.5678 11.0165 12.8398 11.7886 11.8912 12.4063C10.9426 13.024 9.81749 13.4542 8.51593 13.6968L10.1043 12.0754L9.77337 16.8735H6.62976ZM8.18502 24.8814C7.47909 24.8814 6.89449 24.6498 6.43122 24.1865C5.99001 23.7012 5.76941 23.1166 5.76941 22.4327C5.76941 21.7268 5.99001 21.1422 6.43122 20.6789C6.89449 20.2157 7.47909 19.984 8.18502 19.984C8.89095 19.984 9.46452 20.2157 9.90573 20.6789C10.369 21.1422 10.6006 21.7268 10.6006 22.4327C10.6006 23.1166 10.369 23.7012 9.90573 24.1865C9.46452 24.6498 8.89095 24.8814 8.18502 24.8814Z" fill="#212121" fill-opacity="0.7"/>
</svg>
