<svg width="42" height="41" viewBox="0 0 42 41" fill="none" xmlns="http://www.w3.org/2000/svg">
<path d="M11.0195 0.161621C11.8687 0.161621 12.557 0.841695 12.557 1.68061H29.982C29.982 0.841695 30.6704 0.161621 31.5195 0.161621C32.3687 0.161621 33.057 0.841695 33.057 1.68061H33.5695C38.0983 1.68061 41.7695 5.30767 41.7695 9.78187V22.4401C41.7695 23.279 41.0812 23.9591 40.232 23.9591C39.3829 23.9591 38.6945 23.279 38.6945 22.4401V9.78187C38.6945 6.9855 36.4 4.71858 33.5695 4.71858H33.057V7.75656C33.057 8.59547 32.3687 9.27555 31.5195 9.27555C30.6704 9.27555 29.982 8.59547 29.982 7.75656V4.71858H12.557V7.75656C12.557 8.59547 11.8687 9.27555 11.0195 9.27555C10.1704 9.27555 9.48203 8.59547 9.48203 7.75656V4.71858H8.96953C6.13907 4.71858 3.84453 6.9855 3.84453 9.78187V32.0604C3.84453 34.8567 6.13907 37.1236 8.96953 37.1236H23.832C24.6812 37.1236 25.3695 37.8037 25.3695 38.6426C25.3695 39.4815 24.6812 40.1616 23.832 40.1616H8.96953C4.4408 40.1616 0.769531 36.5346 0.769531 32.0604V9.78187C0.769531 5.30767 4.4408 1.68061 8.96953 1.68061H9.48203C9.48203 0.841695 10.1704 0.161621 11.0195 0.161621Z" fill="#212121" fill-opacity="0.7"/>
<path d="M13.0695 15.8578C13.0695 16.9764 12.1517 17.8831 11.0195 17.8831C9.88735 17.8831 8.96953 16.9764 8.96953 15.8578C8.96953 14.7393 9.88735 13.8325 11.0195 13.8325C12.1517 13.8325 13.0695 14.7393 13.0695 15.8578Z" fill="#212121" fill-opacity="0.7"/>
<path d="M21.2695 17.8831C22.4017 17.8831 23.3195 16.9764 23.3195 15.8578C23.3195 14.7393 22.4017 13.8325 21.2695 13.8325C20.1373 13.8325 19.2195 14.7393 19.2195 15.8578C19.2195 16.9764 20.1373 17.8831 21.2695 17.8831Z" fill="#212121" fill-opacity="0.7"/>
<path d="M33.5695 15.8578C33.5695 16.9764 32.6517 17.8831 31.5195 17.8831C30.3873 17.8831 29.4695 16.9764 29.4695 15.8578C29.4695 14.7393 30.3873 13.8325 31.5195 13.8325C32.6517 13.8325 33.5695 14.7393 33.5695 15.8578Z" fill="#212121" fill-opacity="0.7"/>
<path d="M11.0195 24.9717C12.1517 24.9717 13.0695 24.065 13.0695 22.9464C13.0695 21.8279 12.1517 20.9211 11.0195 20.9211C9.88735 20.9211 8.96953 21.8279 8.96953 22.9464C8.96953 24.065 9.88735 24.9717 11.0195 24.9717Z" fill="#212121" fill-opacity="0.7"/>
<path d="M23.3195 22.9464C23.3195 24.065 22.4017 24.9717 21.2695 24.9717C20.1373 24.9717 19.2195 24.065 19.2195 22.9464C19.2195 21.8279 20.1373 20.9211 21.2695 20.9211C22.4017 20.9211 23.3195 21.8279 23.3195 22.9464Z" fill="#212121" fill-opacity="0.7"/>
<path d="M33.5695 22.9464L33.5695 22.962C33.4 22.9517 33.2291 22.9464 33.057 22.9464C31.8271 22.9464 30.6605 23.2139 29.6134 23.6933C29.5206 23.4622 29.4695 23.2102 29.4695 22.9464C29.4695 21.8279 30.3873 20.9211 31.5195 20.9211C32.6517 20.9211 33.5695 21.8279 33.5695 22.9464Z" fill="#212121" fill-opacity="0.7"/>
<path d="M13.0695 30.035C13.0695 31.1536 12.1517 32.0604 11.0195 32.0604C9.88735 32.0604 8.96953 31.1536 8.96953 30.035C8.96953 28.9165 9.88735 28.0097 11.0195 28.0097C12.1517 28.0097 13.0695 28.9165 13.0695 30.035Z" fill="#212121" fill-opacity="0.7"/>
<path d="M21.2695 32.0604C22.4017 32.0604 23.3195 31.1536 23.3195 30.035C23.3195 28.9165 22.4017 28.0097 21.2695 28.0097C20.1373 28.0097 19.2195 28.9165 19.2195 30.035C19.2195 31.1536 20.1373 32.0604 21.2695 32.0604Z" fill="#212121" fill-opacity="0.7"/>
<path d="M35.107 30.035C35.107 29.1961 34.4187 28.5161 33.5695 28.5161C32.7204 28.5161 32.032 29.1961 32.032 30.035V32.8705C32.032 33.7094 32.7204 34.3895 33.5695 34.3895H35.6195C36.4687 34.3895 37.157 33.7094 37.157 32.8705C37.157 32.0316 36.4687 31.3515 35.6195 31.3515H35.107V30.035Z" fill="#212121" fill-opacity="0.7"/>
<path fill-rule="evenodd" clip-rule="evenodd" d="M33.5695 40.1616C38.0983 40.1616 41.7695 36.5346 41.7695 32.0604C41.7695 27.5862 38.0983 23.9591 33.5695 23.9591C29.0408 23.9591 25.3695 27.5862 25.3695 32.0604C25.3695 36.5346 29.0408 40.1616 33.5695 40.1616ZM33.5695 37.1236C36.4 37.1236 38.6945 34.8567 38.6945 32.0604C38.6945 29.264 36.4 26.9971 33.5695 26.9971C30.7391 26.9971 28.4445 29.264 28.4445 32.0604C28.4445 34.8567 30.7391 37.1236 33.5695 37.1236Z" fill="#212121" fill-opacity="0.7"/>
</svg>
