<svg width="37" height="41" viewBox="0 0 37 41" fill="none" xmlns="http://www.w3.org/2000/svg">
<path fill-rule="evenodd" clip-rule="evenodd" d="M16.7761 20.7744C22.3012 20.7744 26.7802 16.2973 26.7802 10.7744C26.7802 5.25157 22.3012 0.774414 16.7761 0.774414C11.251 0.774414 6.77199 5.25157 6.77199 10.7744C6.77199 16.2973 11.251 20.7744 16.7761 20.7744ZM16.7761 17.7744C20.6437 17.7744 23.7789 14.6404 23.7789 10.7744C23.7789 6.90842 20.6437 3.77441 16.7761 3.77441C12.9085 3.77441 9.77321 6.90842 9.77321 10.7744C9.77321 14.6404 12.9085 17.7744 16.7761 17.7744Z" fill="#363538" fill-opacity="0.7"/>
<path d="M28.5487 14.5422C29.1347 13.9564 30.0848 13.9564 30.6708 14.5422L32.4393 16.31L34.2078 14.5422C34.7938 13.9564 35.744 13.9564 36.33 14.5422C36.916 15.128 36.916 16.0777 36.33 16.6635L34.5615 18.4313L36.33 20.199C36.916 20.7848 36.916 21.7346 36.33 22.3204C35.744 22.9061 34.7938 22.9061 34.2078 22.3204L32.4393 20.5526L30.6708 22.3204C30.0848 22.9061 29.1347 22.9061 28.5487 22.3204C27.9626 21.7346 27.9626 20.7848 28.5487 20.199L30.3171 18.4313L28.5487 16.6635C27.9626 16.0777 27.9626 15.128 28.5487 14.5422Z" fill="#363538" fill-opacity="0.7"/>
<path fill-rule="evenodd" clip-rule="evenodd" d="M32.7826 31.7744C32.7826 36.745 25.6162 40.7744 16.7761 40.7744C7.93591 40.7744 0.769531 36.745 0.769531 31.7744C0.769531 26.8039 7.93591 22.7744 16.7761 22.7744C25.6162 22.7744 32.7826 26.8039 32.7826 31.7744ZM29.7814 31.7744C29.7814 32.6945 29.0865 34.1385 26.623 35.5236C24.2537 36.8559 20.7783 37.7744 16.7761 37.7744C12.7738 37.7744 9.29848 36.8559 6.92912 35.5236C4.46569 34.1385 3.77076 32.6945 3.77076 31.7744C3.77076 30.8543 4.46569 29.4103 6.92912 28.0252C9.29848 26.693 12.7738 25.7744 16.7761 25.7744C20.7783 25.7744 24.2537 26.693 26.623 28.0252C29.0865 29.4103 29.7814 30.8543 29.7814 31.7744Z" fill="#363538" fill-opacity="0.7"/>
</svg>
